<svg id="Layer_1" data-name="Layer 1" xmlns="http://www.w3.org/2000/svg" width="200" height="250" viewBox="0 0 200 250">
  <defs>
    <style>
      .cls-1 {
        fill: none;
      }

      .cls-2 {
        fill: #9a6b52;
      }

      .cls-3 {
        fill: #b57e66;
      }

      .cls-4 {
        fill: #755344;
      }

      .cls-5 {
        fill: #fffdfe;
      }

      .cls-6 {
        fill: #0f060b;
      }

      .cls-7 {
        fill: #fff;
      }

      .cls-8 {
        fill: #020101;
      }

      .cls-9 {
        fill: #fa8ab1;
      }

      .cls-10 {
        fill: #f9b9d1;
      }

      .cls-11 {
        fill: #d39c89;
      }

      .cls-12 {
        fill: #33b53c;
      }

      .cls-13 {
        fill: #44a052;
      }

      .cls-14 {
        fill: #60f471;
      }

      .cls-15 {
        fill: #23772c;
      }
    </style>
  </defs>
  <g>
    <g id="RlucT8">
      <path class="cls-1" d="M75.73,101.29s-26.56,38.67-16.31,68"/>
      <path class="cls-2" d="M40.55,78.69s-27,31.68-16.77,68.49S64,185.78,64,185.78s83.08,1.77,84.91.29c30.91-24.91,19.21-58.29,10.88-69.18C147.71,101.05,126.28,90.34,110,88.94S82.49,82.42,75.5,77.29s-8.85-14.91-8.85-14.91Z"/>
      <path class="cls-3" d="M43.37,82.59s-23,28.85-14.25,62.37,34.21,35.16,34.21,35.16,70.59,1.6,72.15.26c26.27-22.69,16.32-53.08,9.24-63a60.63,60.63,0,0,0-12.84-13,69.07,69.07,0,0,0-10-6.31,54.59,54.59,0,0,0-19.5-6.14C88.5,90.65,79,86,73.06,81.32s-7.52-13.58-7.52-13.58Z"/>
      <ellipse class="cls-4" cx="99.49" cy="112.7" rx="27.02" ry="16.07"/>
      <ellipse class="cls-5" cx="97.86" cy="110.37" rx="23.99" ry="13.74"/>
      <ellipse class="cls-6" cx="92.04" cy="105.25" rx="13.98" ry="8.15" transform="translate(-4.27 3.89) rotate(-2.37)"/>
      <ellipse class="cls-7" cx="92.97" cy="100.35" rx="4.66" ry="3.26"/>
      <g>
        <polygon class="cls-8" points="92.03 90.06 131.62 112.25 135.07 104.58 92.03 90.06"/>
        <path d="M131.85,113,91.79,90.49l.41-.91,43.55,14.7ZM97,92.25l34.42,19.29,3-6.66Z"/>
      </g>
      <path class="cls-9" d="M54.62,52.37c-6.08-.23-11.46,1.86-14.3,5.13C36.5,60.82,35.53,68,38.3,75c3.24,8.23,10.39,13.12,16,10.92,4.12-1.62,6.22-6.66,5.74-12.5C65.83,72,70,68.34,70.2,63.84,70.44,57.85,63.46,52.72,54.62,52.37Z"/>
      <path class="cls-10" d="M54,57.93c-3.42-.14-6.45,1-8,2.88-2.15,1.87-2.7,5.91-1.14,9.86,1.83,4.63,5.85,7.38,9,6.15,2.32-.92,3.5-3.75,3.23-7,3.27-.8,5.63-2.88,5.73-5.41C62.93,61,59,58.12,54,57.93Z"/>
      <ellipse class="cls-9" cx="55.93" cy="63.78" rx="3.49" ry="1.63"/>
      <ellipse class="cls-9" cx="50.8" cy="70.3" rx="1.63" ry="3.49" transform="translate(-16.91 16.1) rotate(-15.47)"/>
      <rect x="49.64" y="88.75" width="3.26" height="18.64"/>
      <rect x="40.23" y="86.41" width="3.26" height="18.64" transform="translate(31.61 -8.25) rotate(17.99)"/>
      <rect x="57.94" y="87.34" width="3.26" height="18.64" transform="translate(-25.57 21.54) rotate(-16.93)"/>
      <rect x="74.8" y="41.68" width="3.26" height="18.64" transform="translate(71.46 -40.75) rotate(53.19)"/>
      <rect x="67.81" y="35.62" width="3.26" height="18.64" transform="translate(31.77 -28.7) rotate(30)"/>
      <rect x="78.99" y="49.33" width="3.26" height="18.64" transform="translate(45.6 152) rotate(-105.47)"/>
    </g>
    <path class="cls-11" d="M37.23,156.06c10.42,15.78,8.11-.78,4-6.93-5.53-8.31-5.43-11.8-4.89-18.67.13-1.57.32-3.26.48-5.26.72-8.82-1.44-12.91-2.22-13.8a1,1,0,0,0-1.75.13,9.47,9.47,0,0,0-1.31,3.7,61.07,61.07,0,0,0-.73,6.63C30.28,130.25,30.33,145.6,37.23,156.06Z"/>
    <g>
      <path class="cls-12" d="M142.48,156.32s-44.78,33.2-8.75,59.58C133.73,215.9,169.6,194.86,142.48,156.32Z"/>
      <path class="cls-13" d="M112.8,148.34s18,44.21-2,61l-6.39,5.36S95.3,176.23,112.8,148.34Z"/>
      <path class="cls-14" d="M82.27,161.13s34.24,27.54-.43,48.54C81.84,209.67,53.67,192.12,82.27,161.13Z"/>
      <path class="cls-12" d="M54.16,151.91S21.52,194.05,64.58,211.3C64.58,211.3,92.48,182.89,54.16,151.91Z"/>
      <path class="cls-15" d="M102.87,161.39S77.4,189.63,90,206.44l4,5.35S110.67,185.7,102.87,161.39Z"/>
      <path class="cls-14" d="M128,184.2s15.74,20.7-8.61,29C119.37,213.19,105.54,199.21,128,184.2Z"/>
      <path class="cls-15" d="M164.53,167.55s3.85,35.38-17.33,44l-6.75,2.74S142.66,184.64,164.53,167.55Z"/>
      <path class="cls-15" d="M58.25,210.7s-8.3-29.55-26.2-32.87l-5.71-1.06S37.19,200.56,58.25,210.7Z"/>
    </g>
  </g>
</svg>
