<svg id="Layer_1" data-name="Layer 1" xmlns="http://www.w3.org/2000/svg" width="300" height="300" viewBox="0 0 300 300">
  <defs>
    <style>
      .cls-1 {
        fill: #b71313;
      }

      .cls-2 {
        fill: #c91f1f;
      }

      .cls-3 {
        fill: #f91010;
      }

      .cls-4 {
        fill: #fff;
      }

      .cls-5 {
        fill: #ce3232;
      }

      .cls-6 {
        fill: #ff5050;
      }
    </style>
  </defs>
  <g>
    <g>
      <path class="cls-1" d="M30.6,54.29v194c0,16.45,20,26.65,35.75,18.26l182.56-97c15.48-8.22,15.48-28.3,0-36.52L66.35,36C50.56,27.64,30.6,37.84,30.6,54.29Z"/>
      <path class="cls-2" d="M40,70V237.31c0,14.18,17.78,23,31.83,15.75l162.57-83.65c13.78-7.09,13.78-24.41,0-31.5L71.85,54.26C57.8,47,40,55.83,40,70Z"/>
      <path class="cls-3" d="M46,76.33V226.88c0,12.76,16,20.68,28.66,14.17L221,165.78c12.41-6.38,12.41-22,0-28.35L74.69,62.15C62,55.65,46,63.56,46,76.33Z"/>
      <g>
        <path class="cls-4" d="M68.27,163.85a3.3,3.3,0,0,1,1.3-2,15.26,15.26,0,0,1,2.4-1.45c.91-.45,1.85-.86,2.84-1.26a24.8,24.8,0,0,0,2.73-1.25,7.31,7.31,0,0,0,2.07-1.56,3.07,3.07,0,0,0,.82-2.17,4.27,4.27,0,0,0-.84-2.71,7.18,7.18,0,0,0-2.25-1.84,15.72,15.72,0,0,0-3.19-1.27l-3.66-1c-1.24-.36-2.46-.75-3.65-1.18a13.32,13.32,0,0,1-3.2-1.61,7.86,7.86,0,0,1-2.25-2.35,6.47,6.47,0,0,1-.84-3.42,7.61,7.61,0,0,1,.69-3.2,12.3,12.3,0,0,1,1.84-2.86,16.17,16.17,0,0,1,2.66-2.48,17.35,17.35,0,0,1,3.17-1.89,19.67,19.67,0,0,1,3.34-1.2,12.6,12.6,0,0,1,3.12-.43h.56a11,11,0,0,1,1.23.51l1.48.69c.48.22.89.42,1.23.61a1.94,1.94,0,0,1,.51.33V130c-.65.07-1.48.19-2.5.38s-2.1.44-3.22.74a32.9,32.9,0,0,0-3.43,1.15,16.82,16.82,0,0,0-3.11,1.61A8.81,8.81,0,0,0,65.87,136a4.56,4.56,0,0,0-.87,2.74,4.23,4.23,0,0,0,1.53,3.45,13,13,0,0,0,3.83,2.07,47.55,47.55,0,0,0,5,1.45,37.28,37.28,0,0,1,5,1.54,11.54,11.54,0,0,1,3.84,2.35,5.14,5.14,0,0,1,1.53,3.91,5.92,5.92,0,0,1-.79,2.78,14.13,14.13,0,0,1-2.1,2.86A25.72,25.72,0,0,1,76.62,164a22.81,22.81,0,0,1-3.34,1.53,8.55,8.55,0,0,1-2.92.59,3.79,3.79,0,0,1-.86-.1,2.32,2.32,0,0,1-.8-.33,1.53,1.53,0,0,1-.51-.69A1.71,1.71,0,0,1,68.27,163.85Z"/>
        <path class="cls-4" d="M87.64,125.67a5.18,5.18,0,0,1,.59-2.6,4.65,4.65,0,0,1,1.61-1.66,7.73,7.73,0,0,1,2.28-1,17.85,17.85,0,0,1,2.6-.43,21.39,21.39,0,0,1,2.63-.1l2.36,0a22.12,22.12,0,0,1,4.19.41,10.62,10.62,0,0,1,3.7,1.43,7.81,7.81,0,0,1,3.66,7,11.81,11.81,0,0,1-.9,4.47,21.36,21.36,0,0,1-2.3,4.25,23.35,23.35,0,0,1-3.19,3.68,29.68,29.68,0,0,1-3.55,2.83,19,19,0,0,1-3.38,1.84,5.15,5.15,0,0,1-2.68.51,17.56,17.56,0,0,0-.74,4.27c-.09,1.52-.11,3-.08,4.45s.09,2.83.15,4.14a14.11,14.11,0,0,1-.17,3.37,3.7,3.7,0,0,1-1,2.09,2.75,2.75,0,0,1-2.35.44q-.47-3.63-.69-7.36c-.16-2.49-.28-5-.39-7.41s-.19-4.85-.28-7.18-.2-4.56-.35-6.67-.37-4.09-.64-5.93A40,40,0,0,0,87.64,125.67Zm12.63-1.32c-.51,0-1.14,0-1.89.05a9.63,9.63,0,0,0-2.17.33,4,4,0,0,0-1.77,1,2.6,2.6,0,0,0-.71,2v13.39a10.31,10.31,0,0,0,4.44-1.13,18.2,18.2,0,0,0,4.3-2.86,16.56,16.56,0,0,0,3.22-3.93,8.64,8.64,0,0,0,1.27-4.35,4.37,4.37,0,0,0-.58-2.45,4,4,0,0,0-1.54-1.33,6,6,0,0,0-2.12-.56C101.94,124.38,101.12,124.35,100.27,124.35Z"/>
        <path class="cls-4" d="M129,159a29,29,0,0,0-.67-5.88c-.44-2.11-.92-4.28-1.43-6.49s-1-4.42-1.48-6.62a32.29,32.29,0,0,1-.77-6.21H113.26v-1.18a8.22,8.22,0,0,1,.15-1.55,5.65,5.65,0,0,1,.46-1.44,1.36,1.36,0,0,1,.92-.79H142.9a4.63,4.63,0,0,1-.67,2.51,3.89,3.89,0,0,1-1.61,1.33,7,7,0,0,1-2.22.58l-2.45.28c-.82.11-1.62.23-2.4.39a4.6,4.6,0,0,0-2,.89,4.07,4.07,0,0,0-1.28,1.82,6.81,6.81,0,0,0-.23,3.09c0,.71,0,1.66.15,2.83s.27,2.45.51,3.81.55,2.74.92,4.12a21.51,21.51,0,0,0,1.41,3.78A9.72,9.72,0,0,0,135,157a3.6,3.6,0,0,0,2.58,1.05,20.18,20.18,0,0,0,2.63,0l3.25-.13c1.09,0,2.12,0,3.09.05a4,4,0,0,1,2.12.62,1.21,1.21,0,0,1,.31,1.51,8.22,8.22,0,0,1-2.25,2.68,29.6,29.6,0,0,1-6.62,1.66,55.91,55.91,0,0,1-6.72.46c-2.25,0-4.5,0-6.75-.1s-4.48-.13-6.69-.13a11.79,11.79,0,0,1-2.25-3.53c-.24-.81-.15-1.38.28-1.71a3.59,3.59,0,0,1,2-.51c.93,0,2,0,3,.1s2.18.16,3.27.21A7.81,7.81,0,0,0,129,159Z"/>
        <path class="cls-4" d="M152.26,132.52a1.3,1.3,0,0,1,.69-1.33,3.72,3.72,0,0,1,1.5-.3l.59.05.54.05c.1,1.06.2,2.33.31,3.81s.22,3.08.35,4.8.31,3.5.51,5.34.5,3.64.87,5.39a44.57,44.57,0,0,0,1.38,5,17.36,17.36,0,0,0,2,4.12,3.67,3.67,0,0,0,.48.69,2,2,0,0,0,.46.35,1.27,1.27,0,0,0,.54.16c.2,0,.46,0,.77,0a11.33,11.33,0,0,0,4-.71c1.27-.48,2.54-1,3.8-1.59s2.54-1.1,3.84-1.58a11.62,11.62,0,0,1,4.09-.72c.3,0,.69,0,1.17,0a7.08,7.08,0,0,1,1.33.07,2,2,0,0,1,1.07.52,1.53,1.53,0,0,1,.46,1.22c0,.51-.46,1.07-1.38,1.66a21.54,21.54,0,0,1-3.52,1.79q-2.15.9-4.68,1.76c-1.69.59-3.3,1.1-4.85,1.54s-2.93.79-4.12,1a15,15,0,0,1-2.35.38,4.72,4.72,0,0,1-3.24-1.25,10.94,10.94,0,0,1-2.46-3.38,25.61,25.61,0,0,1-1.76-4.85,56.8,56.8,0,0,1-1.18-5.7q-.45-3-.71-5.88c-.17-1.94-.29-3.74-.36-5.41s-.11-3.14-.13-4.4S152.26,133,152.26,132.52Z"/>
      </g>
      <path class="cls-5" d="M35.28,51.9c3.39-5.71,13.92-27.33,41.42-7.4s-4.35,6-4.35,6-20.62-8.45-31.53,6.61S31.9,57.61,35.28,51.9Z"/>
      <path class="cls-6" d="M75.25,233.36c-5.5,1.46-25.33,8.37-22.89-20.23S58.5,212,58.5,212s2.78,17.48,18.12,14.8S80.74,231.9,75.25,233.36Z"/>
      <path class="cls-6" d="M66.9,216.78c3.65,2.8,15.65,13.67,34.38-1.27s-4.47-2.85-4.47-2.85-15.12,7.51-26.34.41S63.25,214,66.9,216.78Z"/>
    </g>
    <path class="cls-4" d="M52.68,70.21c-8.42,15.27,2.44,14.44,5.71,8.43,4.43-8.11,6.85-7.25,11.71-5,1.1.52,2.31,1.19,3.73,1.87,6.24,3,8.55,0,9-1.24a3.69,3.69,0,0,0-.5-3.1,9.78,9.78,0,0,0-2.86-3,28,28,0,0,0-4.73-2.58C68.81,63,58.26,60.09,52.68,70.21Z"/>
    <ellipse class="cls-4" cx="91.29" cy="80.67" rx="4.73" ry="6.21" transform="translate(-19.62 131.07) rotate(-65.91)"/>
  </g>
</svg>
