<svg id="Layer_1" data-name="Layer 1" xmlns="http://www.w3.org/2000/svg" width="200" height="250" viewBox="0 0 200 250">
  <defs>
    <style>
      .cls-1 {
        fill: #275b2d;
      }

      .cls-2 {
        fill: #d828c4;
      }

      .cls-3 {
        fill: #ed5fe3;
      }

      .cls-4 {
        fill: #f7ba4d;
      }

      .cls-5 {
        fill: #ffe461;
      }

      .cls-6 {
        fill: none;
      }

      .cls-7 {
        fill: #0a0906;
      }

      .cls-8 {
        fill: #070307;
      }

      .cls-9 {
        fill: #ff9c15;
      }

      .cls-10 {
        fill: #fff;
      }

      .cls-11 {
        fill: #020201;
      }

      .cls-12 {
        fill: #fffffd;
      }

      .cls-13 {
        fill: #44a052;
      }

      .cls-14 {
        fill: #050305;
      }

      .cls-15 {
        fill: #23772c;
      }

      .cls-16 {
        fill: #60f471;
      }

      .cls-17 {
        fill: #33b53c;
      }

      .cls-18 {
        fill: #f9acf9;
      }
    </style>
  </defs>
  <g>
    <path class="cls-1" d="M103.5,214.56c12.14-32.25,14.51-57.72,14.36-73.4-.17-17.16-3.24-26.59-3.37-27l-5.08,1.63L112,115l-2.54.81c0,.09,3,9.24,3.1,25.68.11,15.19-2.23,39.87-14,71.22Z"/>
    <ellipse class="cls-2" cx="99.41" cy="40.43" rx="12.75" ry="23.11" transform="translate(-1.86 4.9) rotate(-2.8)"/>
    <ellipse class="cls-2" cx="75.46" cy="43.62" rx="12.17" ry="22.91" transform="translate(-8.74 21.09) rotate(-15.05)"/>
    <ellipse class="cls-2" cx="56.12" cy="51.79" rx="12.05" ry="22.46" transform="translate(-19.66 61.24) rotate(-49.81)"/>
    <ellipse class="cls-2" cx="44.52" cy="73.51" rx="22.46" ry="12.05" transform="translate(-3.54 2.26) rotate(-2.8)"/>
    <ellipse class="cls-2" cx="77.69" cy="110.4" rx="28.31" ry="13.58" transform="translate(-47.96 159.77) rotate(-76.32)"/>
    <ellipse class="cls-2" cx="54.74" cy="97.14" rx="26.41" ry="14.64" transform="translate(-54.79 76.28) rotate(-49.81)"/>
    <ellipse class="cls-2" cx="101.79" cy="111.44" rx="12.5" ry="28.56"/>
    <ellipse class="cls-2" cx="126.06" cy="110.47" rx="12.63" ry="30.14" transform="translate(-30.61 50.89) rotate(-20.41)"/>
    <ellipse class="cls-2" cx="155.8" cy="75.59" rx="12.05" ry="22.46" transform="matrix(0.15, -0.99, 0.99, 0.15, 58.32, 218.72)"/>
    <ellipse class="cls-2" cx="143.61" cy="51.86" rx="23.06" ry="12.41" transform="translate(11.32 128.11) rotate(-49.81)"/>
    <ellipse class="cls-2" cx="121.88" cy="41.08" rx="22.46" ry="12.05" transform="translate(58.91 153.22) rotate(-79.31)"/>
    <ellipse class="cls-2" cx="149.28" cy="98.37" rx="12.9" ry="26.48" transform="translate(-18.83 159.19) rotate(-53.27)"/>
    <ellipse class="cls-3" cx="99.56" cy="34.98" rx="7.96" ry="13.61" transform="translate(-1.59 4.9) rotate(-2.8)"/>
    <ellipse class="cls-3" cx="74.12" cy="38.16" rx="7.37" ry="13.64" transform="translate(-8.25 25.29) rotate(-18.36)"/>
    <ellipse class="cls-3" cx="54.66" cy="50.77" rx="7.47" ry="14.02" transform="translate(-19.89 53.52) rotate(-45)"/>
    <ellipse class="cls-3" cx="42.46" cy="73.47" rx="15.7" ry="7.98" transform="translate(-3.54 2.16) rotate(-2.8)"/>
    <ellipse class="cls-3" cx="52.7" cy="99.49" rx="18.56" ry="9.58" transform="translate(-57.31 75.56) rotate(-49.81)"/>
    <ellipse class="cls-3" cx="75.42" cy="114.54" rx="19.14" ry="9.29" transform="translate(-51.12 167.42) rotate(-79.31)"/>
    <ellipse class="cls-3" cx="122.46" cy="37.4" rx="14.54" ry="8.29" transform="translate(62.99 150.8) rotate(-79.31)"/>
    <ellipse class="cls-3" cx="145.23" cy="50.9" rx="14.36" ry="7.37" transform="translate(17.59 136.87) rotate(-53.27)"/>
    <ellipse class="cls-3" cx="157.28" cy="76.04" rx="8.03" ry="16.97" transform="translate(59.15 220.57) rotate(-81.62)"/>
    <ellipse class="cls-3" cx="100.85" cy="115.98" rx="7.79" ry="18.16" transform="translate(-5.54 5.06) rotate(-2.8)"/>
    <ellipse class="cls-3" cx="126.69" cy="113.84" rx="8.5" ry="20.02" transform="translate(-31.74 51.32) rotate(-20.41)"/>
    <ellipse class="cls-3" cx="150.76" cy="99.41" rx="9.72" ry="17.11" transform="translate(-19.07 160.8) rotate(-53.27)"/>
    <ellipse class="cls-4" cx="99.86" cy="72.17" rx="38.53" ry="21.42"/>
    <ellipse class="cls-5" cx="99.95" cy="71.72" rx="33.98" ry="18.89"/>
    <path class="cls-6" d="M111.91,82c-4.46,4.76-14.82,6.18-21.72-.3"/>
    <g>
      <path d="M100.46,84.84a21.06,21.06,0,0,0,10.82-3.31l-1-1.46c-.39.27-9.74,6.67-18.32,0l-1.1,1.41A15.37,15.37,0,0,0,100.46,84.84Z"/>
      <path class="cls-7" d="M88.82,82.29a4.4,4.4,0,0,0,2.82-.91,4.73,4.73,0,0,0,1.61-3.3l-1.18,0,.59,0-.59,0a3.66,3.66,0,0,1-1.18,2.43,3.94,3.94,0,0,1-3.27.52l-.22,1.17A8,8,0,0,0,88.82,82.29Z"/>
      <path class="cls-7" d="M113.36,82.59a4.8,4.8,0,0,0,1-.09l-.26-1.16a3.64,3.64,0,0,1-2.66-.51,3.94,3.94,0,0,1-1.34-3l-1.19.09a5.08,5.08,0,0,0,1.84,3.9A4.42,4.42,0,0,0,113.36,82.59Z"/>
    </g>
    <path class="cls-8" d="M120.42,64a4.18,4.18,0,0,0,2.73-1,4.82,4.82,0,0,0,1.41-3.53l-.9,0a4,4,0,0,1-1.1,2.89,3.38,3.38,0,0,1-2.19.82l-.05.89Z"/>
    <path class="cls-8" d="M120.76,64.6a10.19,10.19,0,0,0,2.55-.34c1.88-.52,2.92-1.58,3-3.07l-.89-.06c-.19,2.66-4.74,2.57-4.78,2.57l0,.89Z"/>
    <ellipse class="cls-9" cx="118.66" cy="69.79" rx="7.24" ry="9.52"/>
    <ellipse class="cls-10" cx="117.19" cy="70.01" rx="5.82" ry="7.66"/>
    <ellipse class="cls-11" cx="115.75" cy="70.53" rx="4.18" ry="5.5"/>
    <ellipse class="cls-12" cx="112.64" cy="71.08" rx="1.21" ry="1.59"/>
    <path class="cls-8" d="M80.7,64.76h.1l0-.89a3.41,3.41,0,0,1-2.18-.82,4,4,0,0,1-1.11-2.89l-.89,0A4.81,4.81,0,0,0,78,63.72,4.22,4.22,0,0,0,80.7,64.76Z"/>
    <path class="cls-8" d="M80.36,65.39h.12l0-.89s-4.59.09-4.78-2.57l-.89.06c.11,1.48,1.15,2.54,3,3.07A10.07,10.07,0,0,0,80.36,65.39Z"/>
    <ellipse class="cls-9" cx="82.46" cy="70.59" rx="7.24" ry="9.52"/>
    <ellipse class="cls-10" cx="83.94" cy="70.81" rx="5.82" ry="7.66"/>
    <ellipse class="cls-11" cx="85.37" cy="71.32" rx="4.18" ry="5.5"/>
    <ellipse class="cls-12" cx="88.48" cy="71.88" rx="1.21" ry="1.59"/>
    <path class="cls-13" d="M100,228.68s10.87-57.75-13.29-75.56L79,147.45S76.44,196.72,100,228.68Z"/>
    <path class="cls-14" d="M102.3,72.37l-.8-.67c-.23,0-5.6,1-5.57,2.53,0,.92,1.82,1.82,5.37,2.66l.78-.61c-2-.48-4.37-1.2-4.38-2v0C97.74,73.35,101,72.59,102.3,72.37Z"/>
    <path class="cls-15" d="M99.71,226.59s7.05-37.5-8.64-49.06l-5-3.69S84.44,205.84,99.71,226.59Z"/>
    <path class="cls-16" d="M161.66,148.63s7.47,83.28-61.63,78.9C100,227.53,87.45,167.37,161.66,148.63Z"/>
    <path class="cls-17" d="M140.23,176.29s4.83,53.91-39.9,51.08C100.33,227.37,92.18,188.42,140.23,176.29Z"/>
    <path class="cls-18" d="M154.16,43.73c.14,4.25-2.1,3-2.15,1.32-.06-2.25-.67-2.29-2-2.26l-1,.05c-1.66,0-1.83-.85-1.79-1.16a1,1,0,0,1,.45-.65,2.45,2.45,0,0,1,.94-.39,6.67,6.67,0,0,1,1.3-.11C151.49,40.53,154.06,40.92,154.16,43.73Z"/>
    <path class="cls-18" d="M127,27.36c1.77,3.86-.78,3.56-1.47,2.05-.92-2.06-1.5-1.86-2.68-1.34-.27.12-.57.28-.91.43-1.51.69-2-.08-2.1-.38a1,1,0,0,1,.16-.77,2.59,2.59,0,0,1,.72-.72,7.42,7.42,0,0,1,1.16-.6C123.26,25.43,125.79,24.8,127,27.36Z"/>
    <path class="cls-18" d="M102.47,25c2.43,3.49-.13,3.65-1.08,2.28-1.27-1.85-1.81-1.56-2.88-.83-.24.16-.5.37-.81.59-1.37.94-2,.28-2.14,0a1,1,0,0,1,0-.78,2.45,2.45,0,0,1,.57-.84,6.42,6.42,0,0,1,1-.8C98.49,23.81,100.87,22.74,102.47,25Z"/>
    <path class="cls-18" d="M73.52,28c3.42,2.51,1,3.49-.29,2.5-1.8-1.34-2.22-.89-3,.14-.18.24-.36.52-.58.82-1,1.34-1.8.91-2,.69a1,1,0,0,1-.23-.75,2.29,2.29,0,0,1,.27-1,7.25,7.25,0,0,1,.71-1.09C69.35,28.13,71.25,26.35,73.52,28Z"/>
    <path class="cls-18" d="M49.07,41.21c4.24.31,2.75,2.4,1.09,2.27-2.25-.17-2.36.43-2.47,1.72,0,.29,0,.62,0,1-.13,1.66-1,1.73-1.35,1.65a1,1,0,0,1-.59-.51,2.34,2.34,0,0,1-.29-1,6.12,6.12,0,0,1,0-1.3C45.6,43.52,46.27,41,49.07,41.21Z"/>
    <path class="cls-18" d="M30.53,71.53c3-3,3.62-.49,2.43.68-1.61,1.57-1.23,2.05-.33,3,.2.21.45.43.72.7,1.16,1.19.61,1.92.36,2.11a1,1,0,0,1-.78.11,2.58,2.58,0,0,1-.93-.43,6.91,6.91,0,0,1-1-.88C30,75.67,28.53,73.51,30.53,71.53Z"/>
    <path class="cls-18" d="M41.3,107.81c1.29-4,3-2.11,2.46-.53-.69,2.14-.13,2.39,1.1,2.79.28.1.6.18,1,.29,1.58.51,1.44,1.42,1.3,1.7a1,1,0,0,1-.64.46,2.5,2.5,0,0,1-1,0,6.75,6.75,0,0,1-1.26-.33C42.74,111.72,40.45,110.49,41.3,107.81Z"/>
    <path class="cls-18" d="M69.83,129.68c-2-3.76.57-3.61,1.35-2.13,1,2,1.61,1.76,2.76,1.17l.88-.49c1.47-.77,2,0,2.12.26a1,1,0,0,1-.12.78,2.51,2.51,0,0,1-.67.76,6.62,6.62,0,0,1-1.12.67C73.64,131.38,71.15,132.16,69.83,129.68Z"/>
    <path class="cls-18" d="M98.86,130.25c-2.66-3.32-.11-3.65.92-2.34,1.4,1.76,1.92,1.43,2.93.64.23-.18.48-.41.78-.64,1.3-1,2-.41,2.13-.14a1,1,0,0,1,0,.78,2.43,2.43,0,0,1-.51.88,6.82,6.82,0,0,1-1,.86C102.91,131.22,100.61,132.45,98.86,130.25Z"/>
    <path class="cls-18" d="M130.65,130.61c-4.12-1-2.31-2.82-.7-2.42,2.19.54,2.4,0,2.71-1.29.07-.28.13-.61.22-1,.4-1.61,1.31-1.53,1.6-1.41a1,1,0,0,1,.5.6,2.45,2.45,0,0,1,.13,1,6.61,6.61,0,0,1-.24,1.28C134.46,128.9,133.39,131.27,130.65,130.61Z"/>
    <path class="cls-18" d="M160.72,109.11c-4.05,1.26-3.43-1.23-1.84-1.71,2.15-.66,2-1.26,1.66-2.5-.08-.28-.2-.59-.31-1-.49-1.59.33-2,.64-2a1,1,0,0,1,.74.26,2.45,2.45,0,0,1,.63.8,6.63,6.63,0,0,1,.45,1.22C163.1,105.69,163.41,108.28,160.72,109.11Z"/>
    <path class="cls-18" d="M170.49,80c-3,3-3.61.54-2.44-.64,1.58-1.6,1.2-2.08.28-3-.2-.21-.45-.43-.72-.69-1.19-1.17-.65-1.91-.4-2.1a1,1,0,0,1,.78-.12,2.4,2.4,0,0,1,.93.41,6,6,0,0,1,1,.86C171,75.84,172.46,78,170.49,80Z"/>
  </g>
</svg>
