<svg id="Layer_1" data-name="Layer 1" xmlns="http://www.w3.org/2000/svg" width="150" height="150" viewBox="0 0 150 150">
  <defs>
    <style>
      .cls-1 {
        fill: #f9482b;
      }

      .cls-2 {
        fill: #ffc064;
      }

      .cls-3 {
        fill: #050305;
      }

      .cls-4 {
        fill: #f7a166;
      }

      .cls-5 {
        fill: #f975b8;
      }

      .cls-6 {
        fill: #ffa9d8;
      }

      .cls-7 {
        fill: #e23c2b;
      }

      .cls-8 {
        fill: #ed635d;
      }

      .cls-9 {
        fill: #ffa49f;
      }

      .cls-10 {
        fill: #f78989;
      }

      .cls-11 {
        fill: #efac54;
      }

      .cls-12 {
        fill: #fff;
      }

      .cls-13 {
        fill: #d146c1;
      }

      .cls-14 {
        fill: #fc81ed;
      }
    </style>
  </defs>
  <g>
    <path class="cls-1" d="M90.83,43.47s43-15.69,27.6,88.17l-48.87-.17Z"/>
    <path class="cls-1" d="M49.64,43.47S6.61,27.78,22,131.64l48.87-.17Z"/>
    <ellipse class="cls-2" cx="71.56" cy="80.25" rx="34.98" ry="48.04"/>
    <path class="cls-3" d="M72.64,81.27l.53-.44c.15,0,3.7.64,3.67,1.67,0,.61-1.2,1.2-3.54,1.76l-.51-.41c1.31-.31,2.88-.79,2.89-1.3v0C75.65,81.92,73.48,81.42,72.64,81.27Z"/>
    <path d="M71.81,101.88h-.37c-4-.1-8.15-2-12-5.5a30.75,30.75,0,0,1-4.6-5.28l1-.64c.06.1,6.6,10,15.63,10.24,5.51.15,10.86-3.31,15.91-10.27l1,.69C83.16,98.26,77.6,101.88,71.81,101.88Z"/>
    <g>
      <path d="M70.65,115.72a1.86,1.86,0,0,1-.33,0c-1.46-.31-2.07-2.63-2.09-2.73l.38-.1s.57,2.19,1.79,2.45c.71.15,1.52-.36,2.43-1.5l.31.24A3.56,3.56,0,0,1,70.65,115.72Z"/>
      <path d="M75.2,115.85c-1.32,0-2.62-1.48-2.68-1.54l.29-.26s1.5,1.69,2.71,1.37c.7-.19,1.2-1,1.49-2.44l.38.08c-.32,1.59-.92,2.51-1.77,2.74A2,2,0,0,1,75.2,115.85Z"/>
    </g>
    <circle class="cls-4" cx="51.62" cy="85.76" r="4.62"/>
    <circle class="cls-5" cx="49.65" cy="84.77" r="2.26"/>
    <circle class="cls-6" cx="48.42" cy="84.6" r="0.83"/>
    <circle class="cls-6" cx="49.47" cy="83.3" r="0.51"/>
    <g>
      <circle class="cls-4" cx="92.44" cy="86.13" r="4.62"/>
      <circle class="cls-5" cx="94.45" cy="84.97" r="2.26"/>
      <circle class="cls-6" cx="95.63" cy="84.39" r="0.83"/>
      <circle class="cls-6" cx="94.38" cy="83.48" r="0.51"/>
    </g>
    <path class="cls-7" d="M49.55,42.1s43.19,19.9,62.1,7.09l6.4-3.66S76.92-7.73,49.55,42.1Z"/>
    <path class="cls-7" d="M51.54,39.28S26.93,27.8,28.83,57.79C28.83,57.79,49.93,62.31,51.54,39.28Z"/>
    <path class="cls-8" d="M92.26,39.9S73.19,52.67,55.2,41.12A56,56,0,0,0,92.26,39.9Z"/>
    <path class="cls-8" d="M47.8,43s-2.59,13.35-15.34,11.4A20.41,20.41,0,0,0,47.8,43Z"/>
    <path class="cls-9" d="M31.84,46.85c-1.15,5.1,2.11,3,2.56,1,.6-2.7,1.42-2.93,3.13-3.26.39-.08.83-.13,1.33-.23,2.2-.41,2.63-1.53,2.64-1.89a.66.66,0,0,0-.44-.64,2.44,2.44,0,0,0-1.16-.2,9.87,9.87,0,0,0-1.7.23C36.13,42.27,32.61,43.47,31.84,46.85Z"/>
    <ellipse class="cls-9" cx="44.6" cy="42.21" rx="2.06" ry="1.57" transform="translate(-4.86 5.82) rotate(-7.08)"/>
    <path class="cls-9" d="M56.3,35.37c-3.19,6,1.67,2.49,2.9.14,1.68-3.18,2.8-3.74,5.08-4.72.52-.22,1.09-.44,1.75-.73,2.93-1.24,3.85-2.63,4-3a.37.37,0,0,0-.34-.55,3.55,3.55,0,0,0-1.41.2,22.82,22.82,0,0,0-2.23.88C63.28,28.79,58.42,31.38,56.3,35.37Z"/>
    <path class="cls-8" d="M98.88,43.49S92.75,55.63,81,50.28A20.4,20.4,0,0,0,98.88,43.49Z"/>
    <path class="cls-10" d="M28.77,115.69s-12.14-28,0-53.26A113.55,113.55,0,0,0,28.77,115.69Z"/>
    <path class="cls-10" d="M112.59,112s12.14-28,0-53.26A113.55,113.55,0,0,1,112.59,112Z"/>
    <ellipse class="cls-11" cx="86.4" cy="69.49" rx="7.96" ry="13.41"/>
    <g>
      <g>
        <ellipse class="cls-12" cx="85.51" cy="69.43" rx="6.88" ry="11.3"/>
        <ellipse cx="85.23" cy="72.53" rx="4.24" ry="8.19"/>
        <ellipse class="cls-12" cx="82.39" cy="70.98" rx="1.4" ry="2.7"/>
        <path class="cls-13" d="M91.79,64.73q-6.83,2.76-12.57,0S82,56,85.51,56,91.79,64.73,91.79,64.73Z"/>
        <g>
          <path d="M91.61,66a15.31,15.31,0,0,1-4.1.78A24.25,24.25,0,0,1,79,65.61l.18-1.11a24,24,0,0,0,8.22,1.09c5.65-.34,9.28-3.15,10.8-8.36l1,.48A11.61,11.61,0,0,1,91.61,66Z"/>
          <path d="M90.41,66.05a5.41,5.41,0,0,1-.87.24l-.15-.69a7.16,7.16,0,0,0,3.08-1.48c1.88-1.57,2.53-3.94,1.94-7L95,57C96.21,63.31,92.24,65.42,90.41,66.05Z"/>
        </g>
      </g>
      <path class="cls-14" d="M82.76,59.9s2.34-6.48,5.1,0C87.86,59.9,85.61,55.68,82.76,59.9Z"/>
      <path class="cls-14" d="M81.78,63.83s3.91,1.62,7.37-.17A6.19,6.19,0,0,1,81.78,63.83Z"/>
    </g>
    <ellipse class="cls-11" cx="56.43" cy="68.38" rx="7.96" ry="13.41"/>
    <g>
      <g>
        <ellipse class="cls-12" cx="57.58" cy="69.43" rx="6.88" ry="11.3"/>
        <ellipse cx="57.85" cy="72.53" rx="4.24" ry="8.19"/>
        <ellipse class="cls-12" cx="60.7" cy="70.98" rx="1.4" ry="2.7"/>
        <path class="cls-13" d="M51.29,64.73q6.84,2.76,12.57,0S61.05,56,57.58,56,51.29,64.73,51.29,64.73Z"/>
        <g>
          <path d="M51.48,66a15.31,15.31,0,0,0,4.1.78,24.36,24.36,0,0,0,8.54-1.15l-.19-1.11a23.9,23.9,0,0,1-8.21,1.09c-5.65-.34-9.29-3.15-10.8-8.36l-1,.48A11.64,11.64,0,0,0,51.48,66Z"/>
          <path d="M52.68,66.05a5.12,5.12,0,0,0,.87.24l.15-.69a7.11,7.11,0,0,1-3.08-1.48c-1.88-1.57-2.53-3.94-1.94-7L48.09,57C46.88,63.31,50.85,65.42,52.68,66.05Z"/>
        </g>
      </g>
      <path class="cls-14" d="M60.33,59.9s-2.35-6.48-5.1,0C55.23,59.9,57.48,55.68,60.33,59.9Z"/>
      <path class="cls-14" d="M61.31,63.83s-3.91,1.62-7.37-.17A6.19,6.19,0,0,0,61.31,63.83Z"/>
    </g>
    <path d="M54.16,91.7a7.48,7.48,0,0,1-2.63.28l.06-.59a6.6,6.6,0,0,0,2.4-.25h0a3.62,3.62,0,0,0,2.7-3.22l.58.07A4.19,4.19,0,0,1,54.16,91.7Z"/>
    <path d="M86.9,89.86a7.69,7.69,0,0,1-.8-2.52l.57,0a6.9,6.9,0,0,0,.72,2.3h0A3.61,3.61,0,0,0,91,91.69l0,.58A4.22,4.22,0,0,1,86.9,89.86Z"/>
  </g>
</svg>
