<?xml version="1.0" encoding="utf-8"?>
<!-- Generator: Adobe Illustrator 24.3.0, SVG Export Plug-In . SVG Version: 6.00 Build 0)  -->
<svg version="1.1" id="Layer_1" xmlns="http://www.w3.org/2000/svg" xmlns:xlink="http://www.w3.org/1999/xlink" x="0px" y="0px"
	 viewBox="0 0 150 150" style="enable-background:new 0 0 150 150;" xml:space="preserve">
<style type="text/css">
	.st0{fill:#636363;}
	.st1{fill:#AAAAAA;}
	.st2{fill:#828282;}
	.st3{fill:#DDDDDD;}
	.st4{fill:#FFFFFF;}
	.st5{fill:#919090;}
	.st6{fill:#FF0000;}
</style>
<polygon class="st0" points="253.3,57.9 262.3,114.1 304.2,122.9 290.6,37.8 "/>
<polygon class="st1" points="255.5,61 263.5,110.6 304.1,117.7 292.1,42.8 "/>
<ellipse transform="matrix(0.9874 -0.1582 0.1582 0.9874 -8.4433 50.2115)" class="st0" cx="311.3" cy="78.2" rx="22.9" ry="63.4"/>
<ellipse transform="matrix(0.9874 -0.1582 0.1582 0.9874 -8.4433 50.2115)" class="st1" cx="311.3" cy="78.2" rx="19.7" ry="52.5"/>
<ellipse transform="matrix(0.9874 -0.1582 0.1582 0.9874 -8.5594 49.7315)" class="st2" cx="308.2" cy="78.6" rx="16.6" ry="44.2"/>
<path class="st3" d="M297.9,31.3c0,0,7.5-9.8,13.5,1c4.9,11.4-4.4,1-4.4,1s-2-3-5.4-0.5C298.3,35.3,292.1,39.8,297.9,31.3z"/>
<path class="st0" d="M307.9,115.4c0,0,6.2,9.2,12.6,0c5.3-9.8-4-1.2-4-1.2s-2.1,2.6-5,0.1S303.1,107.4,307.9,115.4z"/>
<ellipse transform="matrix(0.999 -4.501428e-02 4.501428e-02 0.999 -1.531 13.6404)" class="st0" cx="302.1" cy="40.8" rx="1.9" ry="4.2"/>
<path class="st4" d="M294.7,22.6c0,0,5.6-7.9,14.1-3c7.4,5.6-4.3,1.8-4.3,1.8c-1.9-0.7-4.1-0.3-5.6,1.1
	C296,25,290.5,29.3,294.7,22.6z"/>
<path class="st3" d="M262.8,75c0,0-5.6-10.3,4.1-16.9c9.9-5.1-0.3,5.6-0.3,5.6c-1.8,1.7-2.5,4.3-1.7,6.7
	C266,74.9,267.9,83.1,262.8,75z"/>
<path class="st0" d="M252.7,122l-10.4,1.4c-6.5,0.9-12.6-3.8-13.5-10.3L223,68.6c-0.9-6.5,3.8-12.6,10.3-13.5l10.4-1.4
	c6.5-0.9,12.6,3.8,13.5,10.3l5.9,44.4C263.9,115.1,259.3,121.2,252.7,122z"/>
<path class="st1" d="M249.4,117l-5,0.7c-6.5,0.9-12.6-3.8-13.5-10.3l-4.4-33.7c-0.9-6.5,3.8-12.6,10.3-13.5l5-0.7
	c6.5-0.9,12.6,3.8,13.5,10.3l4.4,33.7C260.5,110.1,255.9,116.2,249.4,117z"/>
<path class="st5" d="M233.7,106.4c0,0-0.1,11.1,10.3,7.2c9.9-5-2.6-3.3-2.6-3.3s-3.2,0.9-4.1-2.8S234.4,97.2,233.7,106.4z"/>
<polygon class="st0" points="48.8,51.3 57.8,107.6 99.7,116.4 86.1,31.3 "/>
<polygon class="st1" points="51.1,54.5 59,104 99.6,111.2 87.6,36.3 "/>
<ellipse transform="matrix(0.9874 -0.1582 0.1582 0.9874 -9.9843 17.7887)" class="st0" cx="106.8" cy="71.6" rx="22.9" ry="63.4"/>
<ellipse transform="matrix(0.9874 -0.1582 0.1582 0.9874 -9.9843 17.7887)" class="st1" cx="106.8" cy="71.6" rx="19.7" ry="52.5"/>
<ellipse transform="matrix(0.9874 -0.1582 0.1582 0.9874 -10.1004 17.3087)" class="st2" cx="103.7" cy="72.1" rx="16.6" ry="44.2"/>
<path class="st3" d="M93.4,24.7c0,0,7.5-9.8,13.5,1c4.9,11.4-4.4,1-4.4,1s-2-3-5.4-0.5S87.6,33.3,93.4,24.7z"/>
<path class="st0" d="M103.4,108.9c0,0,6.2,9.2,12.6,0c5.3-9.8-4-1.2-4-1.2s-2.1,2.6-5,0.1S98.6,100.9,103.4,108.9z"/>
<ellipse transform="matrix(0.999 -4.501428e-02 4.501428e-02 0.999 -1.4444 4.4291)" class="st0" cx="97.6" cy="34.3" rx="1.9" ry="4.2"/>
<path class="st4" d="M90.2,16.1c0,0,5.6-7.9,14.1-3c7.4,5.6-4.3,1.8-4.3,1.8c-1.9-0.7-4.1-0.3-5.6,1.1
	C91.5,18.4,86.1,22.8,90.2,16.1z"/>
<path class="st3" d="M58.3,68.5c0,0-5.6-10.3,4.1-16.9c9.9-5.1-0.3,5.6-0.3,5.6c-1.8,1.7-2.5,4.3-1.7,6.7
	C61.5,68.4,63.4,76.5,58.3,68.5z"/>
<path class="st0" d="M48.2,115.5l-10.4,1.4c-6.5,0.9-12.6-3.8-13.5-10.3l-5.9-44.4c-0.9-6.5,3.8-12.6,10.3-13.5l10.4-1.4
	c6.5-0.9,12.6,3.8,13.5,10.3l5.9,44.4C59.4,108.6,54.8,114.6,48.2,115.5z"/>
<path class="st1" d="M44.9,110.5l-5,0.7c-6.5,0.9-12.6-3.8-13.5-10.3l-4.4-33.7c-0.9-6.5,3.8-12.6,10.3-13.5l5-0.7
	c6.5-0.9,12.6,3.8,13.5,10.3L55.2,97C56.1,103.6,51.4,109.6,44.9,110.5z"/>
<path class="st5" d="M29.3,99.9c0,0-0.1,11.1,10.3,7.2c9.9-5-2.6-3.3-2.6-3.3s-3.2,0.9-4.1-2.8C31.9,97.3,29.9,90.6,29.3,99.9z"/>
<rect x="72.6" y="-4.3" transform="matrix(0.6601 0.7512 -0.7512 0.6601 79.2965 -31.9928)" width="4.8" height="151.8"/>
<rect x="73.3" y="-1.4" transform="matrix(0.6601 0.7512 -0.7512 0.6601 79.3441 -31.8368)" class="st6" width="3.1" height="146.2"/>
</svg>
